<?xml version="1.0" encoding="utf-8"?>
<!-- Generator: Adobe Illustrator 27.1.1, SVG Export Plug-In . SVG Version: 6.00 Build 0)  -->
<svg version="1.1" id="Layer_1" xmlns="http://www.w3.org/2000/svg" xmlns:xlink="http://www.w3.org/1999/xlink" x="0px" y="0px"
	 viewBox="0 0 473.9 473.9" style="enable-background:new 0 0 473.9 473.9;" xml:space="preserve">
<style type="text/css">
	.st0{fill:#717171;}
	.st1{fill:url(#SVGID_1_);}
</style>
<path class="st0" d="M237,356.4C237,356.4,237,356.4,237,356.4C214.3,322.2,201,281.1,201,237c0-44.2,13.2-85.2,35.9-119.5
	c0,0,0,0,0,0c-66,0-119.5,53.5-119.5,119.5C117.5,302.9,171,356.4,237,356.4z"/>
<radialGradient id="SVGID_1_" cx="-350.5348" cy="121.2258" r="26.9325" gradientTransform="matrix(3.7418 0 0 3.7418 1590.3684 -216.6468)" gradientUnits="userSpaceOnUse">
	<stop  offset="0.818" style="stop-color:#D8D5DB"/>
	<stop  offset="1" style="stop-color:#D8D5DB"/>
</radialGradient>
<path class="st1" d="M237,356.4c66,0,119.5-53.5,119.5-119.5c0-66-53.5-119.5-119.5-119.5C214.3,151.7,201,192.8,201,237
	C201,281.1,214.3,322.2,237,356.4z"/>
</svg>
