<?xml version="1.0" encoding="utf-8"?>
<!-- Generator: Adobe Illustrator 27.1.1, SVG Export Plug-In . SVG Version: 6.00 Build 0)  -->
<svg version="1.1" id="Capa_1" xmlns="http://www.w3.org/2000/svg" xmlns:xlink="http://www.w3.org/1999/xlink" x="0px" y="0px"
	 viewBox="0 0 159.7 159.7" style="enable-background:new 0 0 159.7 159.7;" xml:space="preserve">
<style type="text/css">
	.st0{fill:#F8B000;}
	.st1{fill:#F6D100;}
	.st2{fill:#EAA200;}
	.st3{fill:#EAC300;}
</style>
<g>
	<g>
		<polygon class="st0" points="80.4,33.3 84.2,37.7 88.7,34.1 91.7,39 96.8,36.3 98.8,41.7 104.3,39.9 104.8,45.6 110,44.8 
			110,50.6 116.3,50.9 115.6,56.6 121.3,57.8 119.4,63.3 124.7,65.5 121.8,70.5 126.6,73.7 122.8,78 127,82 122.4,85.6 125.9,90.3 
			120.8,93.1 123.3,98.3 117.8,100.1 119.3,105.6 113.6,106.4 114.1,112.2 108.3,111.9 107.8,117.7 102.2,116.4 100.6,122 
			95.3,119.7 92.8,124.9 88,121.7 84.6,126.4 80.4,122.4 76.2,126.4 72.8,121.7 68,124.9 65.5,119.7 60.2,122 58.6,116.4 53,117.7 
			52.5,111.9 46.7,112.2 47.2,106.4 41.5,105.6 43,100.1 37.5,98.3 40,93.1 34.9,90.3 38.3,85.6 33.8,82 38,78 34.2,73.7 39,70.5 
			36,65.5 41.4,63.3 39.3,57.8 45,56.6 43.6,50.9 49,50.6 49,44.8 55.1,45.6 56.3,39.9 61.9,41.7 64,36.3 69.1,39 72.1,34.1 
			76.6,37.7 		"/>
		<circle class="st1" cx="80.4" cy="79.9" r="34.5"/>
	</g>
	<polyline class="st2" points="80.4,33.3 84.2,37.7 88.7,34.1 91.7,39 96.8,36.3 98.8,41.7 104.3,39.9 104.8,45.6 110,44.8 
		110,50.6 116.3,50.9 115.6,56.6 121.3,57.8 119.4,63.3 124.7,65.5 121.8,70.5 126.6,73.7 122.8,78 127,82 122.4,85.6 125.9,90.3 
		120.8,93.1 123.3,98.3 117.8,100.1 119.3,105.6 113.6,106.4 114.1,112.2 108.3,111.9 107.8,117.7 102.2,116.4 100.6,122 
		95.3,119.7 92.8,124.9 88,121.7 84.6,126.4 80.4,122.4 	"/>
	<path class="st3" d="M80.4,45.5c19,0,34.5,15.4,34.5,34.5c0,19-15.4,34.5-34.5,34.5"/>
</g>
</svg>
